<svg width="680" height="330" viewBox="0 0 680 330" role="img" xmlns="http://www.w3.org/2000/svg">
<title>Gehirn mit Stecker</title>
<desc>Schwarz-weisse Strichzeichnung: ein Gehirn, von dem rechts unten ein kurzes Kabel zu einem nach rechts zeigenden Netzstecker mit zwei Stiften fuehrt.</desc>
<g fill="none" stroke="currentColor" stroke-width="2.5" stroke-linecap="round" stroke-linejoin="round">

<path d="M 200 150 C 170 120 175 80 220 80 C 235 55 280 55 295 80 C 310 55 355 60 360 90 C 400 75 430 100 415 135 C 445 145 445 185 410 195 C 415 225 380 245 350 230 C 335 250 295 250 280 232 C 250 250 210 240 215 210 C 175 210 165 175 200 150 Z"/>

<path d="M 295 82 C 305 110 285 130 298 155 C 308 180 288 200 290 235"/>

<path d="M 240 105 C 255 100 268 110 260 122"/>
<path d="M 215 130 C 235 120 250 135 240 150"/>
<path d="M 200 175 C 225 165 245 180 230 195"/>
<path d="M 235 202 C 255 197 268 210 255 222"/>

<path d="M 360 98 C 345 92 335 106 348 116"/>
<path d="M 372 128 C 352 120 338 136 355 148"/>
<path d="M 402 158 C 382 151 368 165 384 178"/>
<path d="M 352 202 C 372 197 387 207 374 220"/>

<path d="M 405 208 C 419 221 423 237 433 250" stroke-width="3"/>

<path d="M 433 236 C 432 233 435 232 439 232 L 481 230 C 486 230 489 233 489 238 L 491 277 C 491 282 488 284 483 283 L 439 282 C 434 282 431 280 431 275 Z"/>

<path d="M 444 240 C 446 256 444 268 445 278"/>

<path d="M 491 245 C 504 243 516 244 524 246 C 527 249 526 251 524 253 C 515 254 503 255 491 254"/>

<path d="M 491 266 C 504 264 516 265 524 267 C 527 270 526 272 524 274 C 515 275 503 276 491 275"/>

</g>
</svg>
